<?xml version="1.0" encoding="UTF-8"?>
<svg width="72px" height="67px" viewBox="0 0 72 67" version="1.1" xmlns="http://www.w3.org/2000/svg" xmlns:xlink="http://www.w3.org/1999/xlink">
    <title>monologo</title>
    <g id="Page-1" stroke="none" stroke-width="1" fill="none" fill-rule="evenodd">
        <g id="monologo" transform="translate(0.000000, 0.870184)" stroke="#000000">
            <path d="M29.5105781,39.9376066 L48.6385996,40.0106748 L41.9316352,53.3248751 L23.0787169,53.1890939 L29.5105781,39.9376066 Z" id="Rectangle" stroke-width="3" fill="#FFFFFF" transform="translate(35.880377, 46.632779) rotate(28.000000) translate(-35.880377, -46.632779) "></path>
            <path d="M29.5105781,32.9376066 L48.6385996,33.0106748 L41.9316352,46.3248751 L23.0787169,46.1890939 L29.5105781,32.9376066 Z" id="Rectangle" stroke-width="3" fill="#FFFFFF" transform="translate(35.880377, 39.632779) rotate(28.000000) translate(-35.880377, -39.632779) "></path>
            <path d="M29.5105781,25.9376066 L48.6385996,26.0106748 L41.9316352,39.3248751 L23.0787169,39.1890939 L29.5105781,25.9376066 Z" id="Rectangle" stroke-width="3" fill="#FFFFFF" transform="translate(35.880377, 32.632779) rotate(28.000000) translate(-35.880377, -32.632779) "></path>
            <path d="M47.8226323,2.5 L47.8226323,15.6298158 L64,15.6298158 C65.5187831,15.6298158 66.8937831,16.2454243 67.8890873,17.2407285 C68.8843915,18.2360327 69.5,19.6110327 69.5,21.1298158 L69.5,21.1298158 L69.5,58.1298158 C69.5,59.6485989 68.8843915,61.0235989 67.8890873,62.0189031 C66.8937831,63.0142073 65.5187831,63.6298158 64,63.6298158 L64,63.6298158 L8,63.6298158 C6.48121694,63.6298158 5.10621694,63.0142073 4.1109127,62.0189031 C3.11560847,61.0235989 2.5,59.6485989 2.5,58.1298158 L2.5,58.1298158 L2.5,21.1298158 C2.5,19.6110327 3.11560847,18.2360327 4.1109127,17.2407285 C5.10621694,16.2454243 6.48121694,15.6298158 8,15.6298158 L8,15.6298158 L24.3838981,15.6298158 L24.3838981,2.5 L47.8226323,2.5 Z" id="Rectangle" stroke-width="5"></path>
        </g>
    </g>
</svg>